<svg xmlns="http://www.w3.org/2000/svg" viewBox="0 0 351.81 382.39"><defs><style>.cls-1,.cls-2{fill:none;stroke:#fff;stroke-miterlimit:10}.cls-1{stroke-width:19px}.cls-2{stroke-width:6px}</style></defs><g id="Layer_2" data-name="Layer 2"><g id="Objects"><path class="cls-1" d="M329.92 177.4H24.23L177.08 13.91 329.92 177.4z"/><path class="cls-2" d="M72.61 157.39L177.08 45.65l104.46 111.74H72.61z"/><text transform="translate(154.16 136.31)" font-size="77" fill="#fff" font-family="Poppins-Medium,Poppins">$</text><path class="cls-1" d="M54.5 220.39v109m41-109v109"/><path class="cls-2" d="M75 220.39v109m30-118H45m60-12H45m60 151H45m60-12H45"/><path class="cls-1" d="M156.5 220.39v109m41-109v109"/><path class="cls-2" d="M177 220.39v109m30-118h-60m60-12h-60m60 151h-60m60-12h-60"/><path class="cls-1" d="M258.5 220.39v109m41-109v109"/><path class="cls-2" d="M279 220.39v109m30-118h-60m60-12h-60m60 151h-60m60-12h-60"/><path class="cls-1" d="M0 372.89h351"/></g></g></svg>