<svg id="bg-el-left" xmlns="http://www.w3.org/2000/svg" width="195.469" height="292.906"><path d="M341.467 413.9c4.583-12.093 9.463-23.884 14.279-35.741 1.392-3.865 3.357-8.37 4.148-12.067a20.105 20.105 0 00-6.911-2.092 1.641 1.641 0 00-.691.464c-6.725 16.43-15.04 31.262-21.42 48.041 2.26 1.595 7.12 1.784 10.595 1.395zm-20.039-27.615a13.644 13.644 0 008.753 1.623c5.442-1.585 9.022-6.188 7.37-14.158-1.854-3.7-5.053-6.047-10.364-6.265-.141.012-.274.034-.23.231-2.672.482-4.255 2.058-5.99 3.481-.812 3.513-2.717 5.927-2.072 10.909a17.472 17.472 0 002.533 4.175zm8.061-9.054c-.524 1.175-2.526 2.268-3.915 1.16-.117-2.215 3.926-4.452 3.915-1.164zm33.168 37.364c5.66-1.1 8.343-5.208 7.832-12.531-1.46-3.945-3.268-7.538-7.141-9.052-.969-.493-2.807-.113-4.146-.231-.139.014-.274.036-.229.231-2.8 1.124-4.239 3.621-6.45 5.339-5.109 7.996.76 16.649 10.134 16.24zm-4.146-10.906a3.857 3.857 0 013.225-.232 4.4 4.4 0 01-.23 1.856c-1.337.531-3.055-.037-2.995-1.628zm-.691-35.973c-5.925 14.764-12.291 29.082-18.427 43.632-1.783-.214-3.8-.191-5.527-.466 5.391-15.918 13.768-28.828 19.117-44.79a37.128 37.128 0 014.837 1.62zm-30.863 2.784c5.916-.834 9.668 3.689 8.06 10.445a9.84 9.84 0 01-6.219 4.641c-11.798 1.663-9.562-14.3-1.841-15.086zm4.375 6.731c.081-6.506-8.51-3.036-6.909 1.857 1.703 2.776 6.692 1.39 6.909-1.861zm28.791 18.566c.65-.713 1.59.243 2.534 0 2.423 1.507 3.847 4.018 4.838 6.963a13.2 13.2 0 01-1.152 6.5c-3.192 4.131-11.456 2-13.36-2.32-1.43-3.244.374-6.98 2.3-9.282 2.24.002 2.917-1.558 4.84-1.865zm-3.225 7.195c-.82 7.235 10.377 4.738 6.45-1.392-1.928-1.635-5.571-.649-6.448 1.388z" transform="translate(-261.406 -364)" opacity=".25" fill="#bebebe" fill-rule="evenodd"/><path d="M411.52 484.752c5.733 3.611 10.341 8.343 15.117 12.907 3.085 5.429 6.411 10.618 9.409 16.134.4.027 1.034-.492 1.235-.155-1.178 4.288 6.636 5.355 7.867 2 .532-2.383-1.5-3-1.7-4.147 2.42-.508 4.412-1.445 6.941-1.844-2.012 5.139 5.1 6.336 6.324 2.767a5.416 5.416 0 00-1.08-3.69c.35-.573 1.32-.528 1.234-1.537-1.159-.79-1.29-2.606-2.159-3.686-6.168.267-11.436 2.739-17.277 3.842-1.441-3.175-3.661-5.573-4.936-8.912 6.822-2.118 14.1-3.783 21.133-5.686.55-4.332.309-10.3.309-15.057 0-1.59.475-3.6-.618-4.609-1.278-.079-3.178.506-3.547 1.843-10.547 2.913-21.459 5.463-30.851 9.526-2.6-1.5-4.908-3.307-7.559-4.764-5.6 2.415-11.966 4.062-16.969 7.069-.267.376-1.273-.45-1.233.461-.194 1.065.574 2.5 1.079 3.38 6.452-1.262 10.938-4.476 17.281-5.842zm40.569-10.141h.464v17.363c-3.784.789-7.658 1.489-11.261 2.458-3.695.827-7.458 1.586-10.336 3.227 1.19 4.141 3.341 7.326 5.245 10.756 6.548.189 11.726-3.047 17.74-3.38a5.194 5.194 0 00.463 1.688c-5.773 1.782-11.879 3.227-17.277 5.38-2.864-5.8-6.68-10.659-9.873-16.134a93.093 93.093 0 00-15.888-12.753c-3.545.309-5.808 1.9-8.484 3.072-1.478.425-2.8 1-4.319 1.384-1.325.112-2.867 1.953-3.857.921-.535-1.027 1.059-.9 1.543-1.382a12.48 12.48 0 002.159-.923c4.144-2.018 8.963-3.364 13.42-5.069a119.986 119.986 0 0115.734 11.981 4.7 4.7 0 002.16 2.305c7.3-2.408 15.636-3.786 22.213-6.915.143-4.189-.244-7.849-.463-11.677-.14-1.01 1.08-.666.771-1.844a.729.729 0 01-.154-.458zm-2.313 2.152h.308v.922c-2.018 1.062-4.719 1.445-7.1 2.151-7.451 1.745-13.668 4.719-20.825 6.76a3.811 3.811 0 01-1.85-1.23c9.147-3.543 19.691-5.692 29.467-8.603zm.617 4.916c-8.031 2.808-17.263 4.42-25.145 7.376a3.656 3.656 0 01-2.158-1.691c9.018-2.745 17.537-5.988 26.994-8.3a9.667 9.667 0 01.309 2.615zm-.463 1.075h.308c.666.106.143 1.4.309 2-7.121 2.587-14.937 4.483-22.059 7.068a4.9 4.9 0 01-2.468-2.15c7.66-2.617 16.45-4.104 23.91-6.918zm.617 4.918c-6.427 2.408-13.937 3.737-20.208 6.3a2.63 2.63 0 01-1.234-1.382c7.062-2.185 14.427-4.068 21.133-6.607.65.017.154 1.177.309 1.689zm2.931 21.665c.993.394 1.382 1.39 1.542 2.611-1.009 1.514-4.161 1.118-3.7-1.382a2.3 2.3 0 012.158-1.229zm-.925 1.844a2.57 2.57 0 01.462.613c.813.094 1.3-.136 1.389-.768a.945.945 0 00-.926-1.076 1.169 1.169 0 00-.925 1.231zm-9.1 3.994c-.775 1.222-3.748.865-4.629 0 .07-2.51 4.713-3.051 4.628 0zm-2.932-.46a1.2 1.2 0 00.926.615 1.032 1.032 0 00.617-1.232.9.9 0 00-1.544.617z" transform="translate(-261.406 -364)" opacity=".5" fill="#bebebe" fill-rule="evenodd"/><path d="M398.958 602.074c-3.958 7.446-.728 18.732 8.572 18 2.9 4.6 6.4 8.588 8.571 13.909-2.114.076-3.3-1.562-5.308-.41-.894 2.239-.179 6.091-.408 9 2.366 2.265 6.148 3.113 11.021 2.862 2.608 3.388 3.334 8.661 6.533 11.454 4.592.107 7.414-1.566 8.571-4.906-.624-3.6-3.212-5.238-4.083-8.594a18.519 18.519 0 0010.2-19.635c-.866-5.7-6.142-10.139-8.568-13.908-4.195-3.283-14.392-2.318-20.41-2.454.567-5.3 7.721-3.993 9.8-7.774-1.511-4.347-3.631-8.086-7.347-10.227-4.887-.395-8.894 3.631-12.249 6.135-1.5-.947-1.953-2.948-4.486-2.863a7.4 7.4 0 00-2.86 4.909c-.007 2.328 2.529 2.106 2.451 4.502zm21.221 19.226c3.44-.272 4.936 2.988 3.677 6.135-1.856-1.41-2.741-3.794-3.677-6.135zm-.812-22.912c-4.348 2.464-10.067 3.548-9.8 10.637.3 1.2 1.238 1.761 2.039 2.452 6.8.415 15.6-1.178 20 1.639a46.486 46.486 0 016.939 10.636c1 10.549-4.338 14.743-9.388 19.226-.04 3.769 3.123 6.346 2.858 9-.539.416-1.506.4-2.042.816-2.99-2.869-3.383-8.335-6.532-11.043-4.023-.472-10.265 1.283-9.391-4.092 2.876-.122 6.637.646 7.349-1.639-2.356-8.273-7.862-13.391-12.244-19.635-8.873 1.553-11.065-9.6-6.532-14.319-.075-2.857-4.179-3.157-3.264-5.725 2.081-1.115 2.879 2.182 4.9 2.453 3.367-2.079 5.177-5.714 9.791-6.543 2.493 1.337 3.596 4.049 5.317 6.142zm-3.674 20.046c2.257 4.42 3.911 9.444 7.349 12.682 9.206-3.445 1.571-18.616-7.349-12.677z" transform="translate(-261.406 -364)" opacity=".3" fill="#bebebe" fill-rule="evenodd"/><path d="M289.352 516.852c1.516 1.844-2.618 4.727-4.127 6.047a6.6 6.6 0 002.179 2.783c5.489-2.084 10.015-7.116 5.1-11.871 2.667-2.26 6.082-4.372 9.131-6.556-.114-.645-1.37-2.078-1.708-2.784.236-.2-.318-.212-.437-.18-5.974 3.878-12.961 8.324-18.08 12.679.154 1 1.284 1.824 2 2.748 1.813-.511 4.57-4.536 5.942-2.866zm44.177 70.154a94.179 94.179 0 018.985-6.3c.5-.418 1.264-.311 1.486-.835-.35-1.255-1.969-2.212-2.324-3.467-.376-.16-.917.5-1.268.218.425-2.826-2.777-5.572-5.011-5.6-4.017.031-9.866 3.561-10.364 7.536-.327 2.009 1.479 4.694 3.379 5.748-3.766 3.589-8.509 4.349-11.854 2.724a8.909 8.909 0 01-1.528-3.217 6.957 6.957 0 013.3-3.765c-.144-1.321-1.76-2.625-2.617-3.432-4.069 1.092-7.2 5.237-7.313 8.326a12.106 12.106 0 008.457 7.695c5.15 1.247 11.143-1.472 16.672-5.631zm1.4-9.877c-.461 1.093-2.081 1.878-3.009 1.379-1.167-1.774 2.506-3.769 3.012-1.379zm-7.882-11.057c.135 2.847-3.99 4.849-5.976 7.276a5.7 5.7 0 002.288 2.71c4.3-2.816 10.248-6.845 10.142-11.15-1.628-3.344-3.956-3.171-6.312-2.852a10.274 10.274 0 002.061-2.317c-.795-1.228-1.983-1.307-2.612-2.021-3.987 3-7.684 6.058-11.158 9.162a11.729 11.729 0 003.013 3.8c3.101-1.003 5.694-6.15 8.557-4.608zm-2.59-13.96c-.857.037-2.331 1.194-3.008 1.849a15.433 15.433 0 011.382 3c.951-.328 1.872-1.433 3.043-2.029.326-.813-.711-2.076-1.414-2.82zm-7.7-9.14a17.449 17.449 0 00-2.033-2.566c-4.516 2.971-9.1 5.753-13.624 8.768-1.384.923-3.222 1.644-3.55 3.151.848.942 1.616 2.3 2.54 2.855 1.809-.62 3.305-2.6 5.073-3.226 2.49 6.029 9.243 5.905 12.477.782a12 12 0 00-2.15-8.607 2.625 2.625 0 001.27-1.157zm-8.93-9.575c.535-.553 1.6-1 1.012-1.773-1.013-.9-1.955-2.17-3.082-2.493-5.183 4.332-10.859 9.379-16.63 13.909.549 1.512 2.318 2.93 3.593 3.721 1.89-1.881 4.772-3.568 6.92-5.4 1.862 2.487 3.969 3.731 6.387 3.427a8.48 8.48 0 005.215-5.359c.431-2.063-1.57-4.629-3.412-6.029zm-2.606 5.5c-.829.377-1.472-.175-2.032-1.154a9 9 0 011.739-1.63 1.639 1.639 0 01.296 2.787zm-13.534-7.289c1.47.917 3.105 1.961 4.862 1.62 4.863-.942 8.021-6.464 5.5-10.1-.05-.062-.1-.116-.181-.036a6.1 6.1 0 00-4.172-1.769c-4.96.936-9.871 5.642-6.006 10.285zm6.088-4.529a2.445 2.445 0 01-2.465 1.486c-1.757-1.851 1.551-3.74 2.468-1.486zM286.186 507.2c.98-.334 1.563 1.3 2.4 1.7a9.843 9.843 0 002.175-1.92c-1.826-3.466-4.653-5.979-7.876-4.007-1.243 1.915.4 4.4-1.333 6.223a1.074 1.074 0 01-1.088-.216c-.676-.947.069-1.616-.258-2.5a4.339 4.339 0 00-2.865-1.228c-6.325 5 4.423 12.549 8.238 5.961.163-1.345-.279-2.813.607-4.013zm24.577 54.515a19.051 19.051 0 002.4 2.636 69.371 69.371 0 008.876-6.7c-.79-1.242-1.573-2.517-2.579-2.673-2.795 1.943-6.628 4.35-8.697 6.736zm-10.217-54.675c-2.709 1.916-6.893 4.328-9.421 6.593a10.787 10.787 0 012.58 3.613c.1 2.75-2.376 5.479-6.047 7.169-.3-.542-.694-.619-.983-1.228 2.763-2.148 5.268-4.345 3.366-7.417-1.752-1.422-4.378.818-6.236 2.429a10.055 10.055 0 01-1.015-1.048c5.191-4.078 11.229-7.99 16.63-12.027.58.676.624 1.25 1.126 1.915zm42.184 72.577c-9.1 5.516-18.648 14.383-26.277 11.713a21.752 21.752 0 01-4.935-3.141 13.477 13.477 0 01-1.89-3.289c.29-2.638 2.16-4.962 5.541-6.986a4.059 4.059 0 011.634 1.733 6.78 6.78 0 00-2.932 3.837 7.334 7.334 0 002.107 4.555c3.492 1.863 7.534.979 11.891-1.5.968-.905 2.153-1.767 1.811-2.933-4.01-2.115-4.2-6.1-1.171-8.786 2.6-2.3 7.208-3.363 9.391-1.711l1.6 2.386a5.591 5.591 0 01-.215 2.5c.55.384 1.356-.5 2.03-.726a11.761 11.761 0 001.415 2.347zm-6.564-2.523c-.473-4.2-7.284-.671-4.787 2.247 1.348 1.15 4.482-.447 4.787-2.248zm-3.46-11.969c-.413 3.773-5.029 6.714-9.2 9.74a6.03 6.03 0 01-1.052-1.337c2.106-2.091 7.412-5.406 5.576-8.108-2.068-3.039-6.49 2.39-9.316 4.17-.676-1.019-1.446-1.571-2.105-2.674a106.594 106.594 0 0010-8.547c.494.674 1.1.8 1.6 1.444-.761 1.041-2.35 1.917-2.5 3.078 2.408.346 5.271-1.561 6.997 2.233zm-8.645-12.432l1.09 1.628a8.186 8.186 0 00-1.666 1.266 5.809 5.809 0 01-1.2-1.553 8.794 8.794 0 001.776-1.342zm-8.314-9.827a3.707 3.707 0 00-1.232.978c1.757 3.137 2.729 6.119 1.931 8.75-1.485 2.024-4.47 3.256-6.307 2.791a8.841 8.841 0 01-4.139-4.769c-1.613.156-4.091 2.312-5.581 3.4a10.611 10.611 0 01-1.743-2.131l15.981-10.652zm-2.971 3.547c-1.034.2-2.5 1.692-3.878 2.428a3.653 3.653 0 001.817 2.711c2.759.088 4.898-3.039 2.061-5.14zm-5.13-14.931l.218.325c.136.59-.93.944-1.049 1.483 1.076 1.533 2.3 2.342 3.305 4.229 1.174 3.425-4.731 7.809-7.538 5.182a7.461 7.461 0 00-2.47-2.748c-2.25 1.5-4.87 3.73-7.679 5.434a12.024 12.024 0 00-2.288-1.769c4.69-4.681 11.269-8.985 15.471-13.763.744.196 1.322 1.236 2.03 1.626zm-2.606 3.62a17.145 17.145 0 00-2.68 2.569 2.894 2.894 0 002.939 2.276 2.571 2.571 0 00-.259-4.847zm-15.083-28.376c.172.441-.594.7-.866 1.05-.955-1.214-1.988-2.013-3.233-1.768-2.259 1.369-1.075 3.422-1.587 5.138-3.231 4.017-10.437-1.119-6.424-4.658 1.785.252.663 1.781 1.634 3.144a2.493 2.493 0 002.213.719c3.165-1.752.828-4.6 2.095-6.728 2.467-1.023 4.302 1.107 6.168 3.102zm10.972 17.312c.078-.082.131-.026.181.037 1.658 3.294-.621 6.307-4.6 7.925a6.211 6.211 0 01-4.062-1.369c-3.652-4.375 2.906-9.326 6.736-7.786a6.35 6.35 0 011.745 1.192zm-6.413 5.216c1.738 1.53 6.053-1.8 3.659-3.693-1.767-1.89-6.064 1.339-3.659 3.692zm26.4 28.362c-2.217 1.911-4.879 3.733-7.43 5.579a17.492 17.492 0 01-1.524-1.806c2.727-1.842 4.984-3.778 7.354-5.688a6.517 6.517 0 011.597 1.914zm-7.806-8.129a5.951 5.951 0 01-2.213 1.16 3.289 3.289 0 01-1.089-1.627 13.542 13.542 0 012.574-1.556 2.87 2.87 0 01.725 2.022zm-51.495-5.149c-.612 1.342.081 4.113 1.964 4.807 1.516-.485 3.768-2.217 5-2.864.145-.941-.411-2.024-.075-2.93 1.108-2.529 3.712-4.078 6.846-5.975 4.209-2.546 9.041-5.55 12.032-6.92-.349-1.761-2.431-2.475-3.522-3.613-2.139-.148-4.468.663-6.527.115-.754 1.356-.857 2.839-1.409 4.232-5.215 4.294-11.47 8.383-14.312 13.147zm37.295 13.411c.963-.794 2.29-1.645 3.079-2.211.056-1.1-1.523-2-1.562-3.033a11.621 11.621 0 00-3.589 1.92 8.053 8.053 0 00-3.665-1.948 11.805 11.805 0 00-2.607 2.207c.268.915 1.754 1.755 1.961 2.927-6.052 3.8-16.869 8.6-12.64 15.169a5.719 5.719 0 007.8-.8 4.191 4.191 0 00-1.273-3.072c-.779-.343-1.813.581-2.574.146a2.113 2.113 0 01.833-1.339c2.633-2.377 7.423-4.672 10.255-6.522a8.524 8.524 0 001.707 1.842 7.561 7.561 0 003.477-1.847c-.146-1.098-1.641-2.461-1.205-3.44zm-16.7-15.533a3.328 3.328 0 001.01-2.713c-.926-2.438-3.378-1.517-4.241 0-.502 1.687 1.57 3.841 3.229 2.712zm-7.527 13.174c-.175-.757.949-1.254 1.049-1.955-.768-1.04-1.54-2.042-2.47-2.275-2.014 1.606-3.018 3.411-2.786 5.465.17 1.243 1.565 2.707 2.434 3.4 2.632 1.6 7.409 1.342 9.316-2.288.566-1.075.425-2.219.868-3.4-.024-1.1-.526-2.3.54-3.182 1.188-.446 2.04.8 3.012 1.441 1.391-.05 2.089-1.637 2.789-2.643-2.451-3.718-8.155-5.907-11.063-1.253-.487 2.16 1.43 4.8.154 6.8-1.532 1.205-2.885 1.528-3.845-.111zm-8.234-1.258c3.866-2.5 8.282-6.5 12.645-9.527a6.1 6.1 0 00-1.527-3.217c-4.413 2.08-9.283 6.236-12.9 9.383a7.676 7.676 0 001.78 3.36zm19.445-24.254l.146.219c-6.654 4.558-18.679 8.435-19.022 15.5a21.55 21.55 0 01-3.225 1.994 4.292 4.292 0 01-1.162-1.735c.5-2.789 3.2-5.157 5.9-7.385 2.775-2.292 5.705-4.724 8.261-6.918.766-1.038.415-2.3 1.048-3.363 2.792.018 5.823-1.153 8.052 1.687zm14.934 25.338c-2.872 1.194-4.259 3.052-2.135 5.5a17.833 17.833 0 01-1.774.868c-.539-.6-1.048-1.368-1.6-1.914-3.838 1.522-8.721 4.925-12.175 7.644-.494.78-1.073 1.543-.506 2.532.867 1.33 2.224.194 3.263.649 1 1.216-1.064 1.489-1.81 1.991-1.172-.317-2.551-.009-3.374-1.046-1.479-1.862.413-5.15 2.5-6.837 3.354-2.718 8.095-5.053 10.727-6.524-.068-1.142-1.573-2.249-2.253-3.362 1.814-2.1 3.441-.622 4.859.683.988-.22 2.22-1.671 3.154-1.631a5.7 5.7 0 011.122 1.446zm-19.489-13.831c-1 .131-1.971-1.449-1.164-2.205a1.247 1.247 0 011.162 2.204zm5.994 10.121c-1.192-.958-2.369-1.991-3.809-1.7a4.433 4.433 0 00-1.34 1.052c-1.022 2.429.366 5.337-1.878 7.524-2.791 2.333-4.921 1.356-7.072.479-.628-.791-1.609-1.516-1.67-2.494-.176-1.445.685-2.685 1.809-3.872.34.028.53.8.872.83-.173.876-.982 1.624-.614 2.606 1.443 2.181 3.743 2.181 5.693.28 1.763-2.219-.547-5.246.209-7.667 3.351-3.222 6.35-.66 9 1.221.28.717-1.093 1.102-1.202 1.74zm-9.218-7.187c-4.1 2.7-7.271 5.577-11.268 8.3-.312-.564-.534-1.109-.8-1.662 3.938-2.856 7.48-5.789 11.159-8.7a4.9 4.9 0 01.907 2.061z" transform="translate(-261.406 -364)" opacity=".4" fill="#bebebe" fill-rule="evenodd"/></svg>