<svg xmlns="http://www.w3.org/2000/svg" viewBox="0 0 108.03 97.98"><defs><clipPath id="clip-path"><path d="M102.87 49a49 49 0 10-49 49 49 49 0 0049-49z" fill="none"/></clipPath><style>.cls-4{fill:#fff8e6}.cls-5{fill:#fdb813}</style></defs><g id="Layer_2" data-name="Layer 2"><g id="Layer_1-2" data-name="Layer 1"><path d="M102.87 49a49 49 0 10-49 49 49 49 0 0049-49z" fill="#f85b30"/><g clip-path="url(#clip-path)"><path class="cls-4" d="M99.68 49.71l-15.11 4.33-6.01 6.46-8.23-2.72-11.96-23.26 16.66-2.48 12.54-4.19 12.11 21.86z"/><path class="cls-5" d="M55.08 69.87a4.64 4.64 0 01-2-6.25 4.64 4.64 0 016.24-2l12.55 7.08a4.63 4.63 0 012 6.24 4.64 4.64 0 01-6.24 2z"/><path class="cls-5" d="M50.72 76.84A4.33 4.33 0 0148.86 71a4.34 4.34 0 015.86-1.87l11.78 6.64a4.35 4.35 0 011.86 5.86 4.34 4.34 0 01-5.86 1.86z"/><path class="cls-5" d="M26.35 31.38l11 4.08s9.72-1.94 10.27-2L54 39.81l15 6.82 10.89 5.75a41.24 41.24 0 01-5.69 10.11c-2.3 3.06-4.2 9.95-7.31 14.09-2.2 2.92-2.94 5.73-6.7 5-9.06-1.69-26.31-14.52-28.93-16.45-.08-.06-4.83-6.67-4.83-6.67l-13.89-7z"/><path class="cls-5" d="M60.06 62.83a4.69 4.69 0 01-2.19-6.26 4.68 4.68 0 016.31-2l13 7a4.69 4.69 0 012.19 6.26 4.68 4.68 0 01-6.31 2z"/><path class="cls-5" d="M63.3 54.55a4.82 4.82 0 01-2.4-6.38 4.82 4.82 0 016.42-2.28l13.39 6.57a4.82 4.82 0 012.39 6.38 4.82 4.82 0 01-6.38 2.4l-1.5-.66z"/><path class="cls-4" d="M66.4 45.47l-13.17-5L47.68 42c-.49 7.71-7.52 7.24-8.69 7.1s-.64-3-.64-3l4.31-12.7L57.11 30c3.14.61 16.6 2.27 16.6 2.27zM38.11 71.83A3.82 3.82 0 0132.85 73a3.83 3.83 0 01-1.76-5.1l3.17-5.66a3.83 3.83 0 015.27-1.18 3.83 3.83 0 011.75 5.11zm7.2 3.81a4.08 4.08 0 01-5.52 1.63 4.08 4.08 0 01-1.5-5.56l3.64-6.49a4.07 4.07 0 015.52-1.63A4.07 4.07 0 0149 69.15zm7.18 3.81a3.88 3.88 0 01-5.33 1.28 3.87 3.87 0 01-1.69-5.21l3.29-5.87a3.88 3.88 0 015.33-1.29 3.89 3.89 0 011.69 5.22zM59 83.22c-.84 1.48-3 1.88-4.76.87-1.79-1-2.58-3-1.74-4.51l2.72-4.87c.83-1.48 3-1.88 4.76-.87 1.79 1 2.57 3 1.74 4.51z"/><path fill="#55d6d2" d="M19.78 58.92l10.9-30.04-20.33-7.1L0 52.49l19.78 6.43z"/><path fill="#18627d" d="M76.71 28.93l10.6 27.68 20.72-7.49-11.04-27.34-20.28 7.15z"/></g></g></g></svg>