<svg xmlns="http://www.w3.org/2000/svg" viewBox="0 0 100.47 97.98"><defs><clipPath id="clip-path"><circle cx="51.47" cy="48.99" r="48.99" transform="rotate(-67.36 51.472 48.994)" fill="none"/></clipPath><style>.cls-2{fill:#f85b30}.cls-4{fill:#fff8e6}.cls-5{fill:#18627d}</style></defs><g id="Layer_2" data-name="Layer 2"><g id="Layer_1-2" data-name="Layer 1"><circle class="cls-2" cx="51.47" cy="48.99" r="48.99" transform="rotate(-67.36 51.472 48.994)"/><g clip-path="url(#clip-path)"><path class="cls-4" d="M40.12 44.52L29.94 34.47 12 65.63l.8.93a16.15 16.15 0 003.87 3.5c2.19 1.59 6.74 4.21 8.89 5.85l5.77-6.65 4.45-2L37 64.32l-.09-15.82z"/><path class="cls-4" d="M40.12 44.52L29.94 34.47 13.13 63.66c1.3.17 3.82-5.25 5-4.6a50.78 50.78 0 016.49 4c2.28 1.74 4.55 3.33 6.91 4.85L37 64.32l-.09-15.82z"/><path class="cls-4" d="M29.94 34.47l16.65-6.17 10.78 1s6 1.22 7.51 2.66c.75.74.87 3.35-2.62 3.65a30.64 30.64 0 01-6.37-.69l-6 .52-6.62 3.36-3.15 5.72-20.95 8.58z"/><path class="cls-4" d="M49 62.59s9.81-1.4 11.25-2.33c3.1-2 1.93-5-.93-5.16l-17.06-.78-3.58-7.09 1.46-2.71-15 5.1-1.6 14.07 7.8 5.57z"/><path class="cls-5" d="M10.24 60.99L0 74.69l18.72 21.1L31.21 75.6 10.24 60.99z"/><rect x="55.26" y="35.66" width="30.47" height="19.16" rx="2.36" ry="2.36" fill="#55d6d2"/><path class="cls-5" d="M61.27 40.42A2.26 2.26 0 1059 42.68a2.25 2.25 0 002.27-2.26z"/><path class="cls-4" d="M64.2 40.42a2.26 2.26 0 10-2.26 2.26 2.25 2.25 0 002.26-2.26z"/><path class="cls-2" d="M67.13 40.42a2.26 2.26 0 10-2.26 2.26 2.25 2.25 0 002.26-2.26z"/><path class="cls-4" d="M56.76 46.89h11.43v2.28H56.76zm0 3.58h7.14v2.28h-7.14zm7.54 0h4.84v2.28H64.3zM82.48 39.3h-.23a7.87 7.87 0 00-2.14-.3A8.49 8.49 0 0074 53.33l.15.17.16.16a9.16 9.16 0 001.11.83 6 6 0 00.54.33h1.49a7.64 7.64 0 01-1.41-.68 10.77 10.77 0 003.12-.55l.5-.18a9.15 9.15 0 01.51 1.41h.49c0-.19-.1-.37-.17-.56a10 10 0 00-.4-1A11.19 11.19 0 0083.43 51l2.15 2.12a7.88 7.88 0 01-2.73 1.69h.53a2.35 2.35 0 002.34-2.21l-2-1.94a11.27 11.27 0 002-2.87v-1.2l-.11.3A10.64 10.64 0 0182.9 45l2.83-2.87V41a10.13 10.13 0 00-1.14-.8 8.65 8.65 0 00-2.11-.9zm-2.31.31a7.83 7.83 0 013.93 1.06 10.38 10.38 0 00-3.06.55l-.64.23a10.56 10.56 0 01-.59-1.83zm-3 4.52a10.74 10.74 0 013-2.07A11.12 11.12 0 0082.23 45l-2.08 2.1zm2.68 3.31l-2.25 2.25a11.25 11.25 0 00-2.9-2 10.54 10.54 0 012.11-3.23zm-.48-7.79c.09.38.18.75.3 1.12s.21.58.33.87a11.35 11.35 0 00-3.2 2.16l-2-2a7.85 7.85 0 014.54-2.15zm-4.92 2.46l2 2a11.21 11.21 0 00-2.2 3.37c-.3-.13-.62-.25-.93-.35s-.67-.19-1-.26a7.84 7.84 0 012.1-4.76zm-2.11 5.34v-.08a11 11 0 011.79.57c0 .16-.11.31-.16.47a10.74 10.74 0 00-.51 3.08 7.81 7.81 0 01-1.15-4.04zm1.61 4.75a10.28 10.28 0 01.61-4.06A10.49 10.49 0 0177.27 50l-2.79 2.83a7 7 0 01-.56-.63zm1.45 1.46c-.19-.15-.37-.3-.55-.47l2.79-2.83A10.84 10.84 0 0179.49 53a10.41 10.41 0 01-4.12.66zm4.55-.85a11.33 11.33 0 00-2-2.79l2.22-2.24 2.93 2.89a10.44 10.44 0 01-3.18 2.14zm5.52-5.49a10.66 10.66 0 01-2 3l-2.93-2.9 2.07-2.1a11.28 11.28 0 002.83 2zm.06-5.62l-2.94 3a10.64 10.64 0 01-2-2.79 10.51 10.51 0 014.24-.74 7.1 7.1 0 01.67.53z"/></g></g></g></svg>