<svg xmlns="http://www.w3.org/2000/svg" viewBox="0 0 99.59 97.98"><defs><clipPath id="clip-path"><circle class="cls-1" cx="48.99" cy="48.99" r="48.99" transform="rotate(-9.36 48.989 49.019)"/></clipPath><style>.cls-1{fill:#18627d}.cls-4{fill:#fff8e6}.cls-5{fill:#f85b30}.cls-6{fill:#fdb813}</style></defs><g id="Layer_2" data-name="Layer 2"><g id="Layer_1-2" data-name="Layer 1"><circle class="cls-1" cx="48.99" cy="48.99" r="48.99" transform="rotate(-9.36 48.989 49.019)"/><g clip-path="url(#clip-path)"><path d="M89 65.34a2 2 0 01-1.59 2.37l-67 13.19a2 2 0 01-2.36-1.58L9.47 35.63a2 2 0 011.58-2.36l67-13.2a2 2 0 012.36 1.59z" fill="#55d6d2"/><path class="cls-4" d="M77.2 25.94v-.2L13.84 38.22l.07.33 5-1 1 5-5 1 .06.33 5-1 1 5-5 1 .07.33 5-1 1 5-5 1 .07.33 5-1 1 5-5 1 .06.34 5-1 1 5-5 1 .07.34 5-1 1 5-5 1 .06.34 5-1 1 4.92.33-.06-1-4.92 5-1 1 4.92.33-.07-1-4.92 5-1 1 4.93.33-.07-1-4.92 5-1 1 4.92.33-.07-1-4.92 5-1 1 4.92.33-.07-1-4.92 5-1 1 4.92L53 69l-1-4.92 5-1L58 68l.34-.07L57.3 63l5-1 1 4.92.34-.06L62.6 62l5-1 1 4.92.34-.07-1-4.92 5-1 1 4.93.33-.07-1-4.92 5-1 1 4.92.33-.06-1-4.93 4.83-1 1 4.92.34-.06-7.41-36.76zm-34.68 18l5-1 1 5-5 1zm.65 5l-5 1-1-5 5-1zm4.65-6.07l5-1 1 5-5 1zm5.3-1l5-1 1 5-5 1zm5.3-1.05l5-1 1 5-5 1zm5.3-1l5-1 1 5-5 1zm-.07-.34l-1-5 5-1 1 5zm-.33.07l-5 1-1-5 5-1zm-5.3 1l-5 1-1-5 5-1zm-5.3 1l-5 1-1-5 5-1zm-5.3 1l-5 1-1-5 5-1zm-5.3 1l-5 1-1-5 5-1zm-5.3 1.05l-5 1-1-5 5-1zm.07.33l1 5-5 1-1-5zm1 5.3l1 5-5 1-1-5zm.34-.06l5-1 1 5-5 1zm5.3-1.05l5-1 1 5-5 1zm5.3-1l5-1 1 5-5 1zm5.29-1l5-1 1 5-5 1zm5.3-1l5-1 1 5-5 1zm5.3-1l5-1 1 5-5 1zm5.3-1l5-1 1 5-5 1zm-.02-.45l-1-5 5-1 1 5zm-1-5.3l-1-5 5-1 1 5zm-1-5.3l-1-5 5-1 1 5zm-.34.07l-5 1-1-5 5-1zm-5.3 1l-5 1-1-5 5-1zm-5.29 1l-5 1-1-5 5-1zm-5.3 1.05l-5 1-1-5 5-1zm-5.3 1l-5 1-1-5 5-1zm-5.3 1l-5 1-1-5 5-1zm-5.3 1l-5 1-1-5 5-1zm-5.3 1.05l-5 1-1-5 5-1zm.07.33l1 5-5 1-1-5zm1 5.3l1 5-5 1-1-5zm1 5.3l1 5-5 1-1-5zm1 5.3l1 5-5 1-1-5zm.33-.07l5-1 1 5-5 1zm5.3-1l5-1 1 5-5 1zm5.3-1l5-1 1 5-5 1zm5.3-1l5-1 1 5-5 1zm5.3-1l5-1 1 5-5 1zm5.3-1l5-1 1 5-5 1zm5.3-1l5-1 1 5-5 1zm5.33-1.1l5-1 1 5-5 1zm5.3-1l4.83-.95 1 5-4.83.95zm-.06-.34l-1-5 4.83-1 1 5zm-1-5.3l-1-5 4.83-.95 1 5zm-1-5.3l-1-5 4.83-.95 1 5zm-1-5.29l-1-5 4.83-.95 1 5zm-54 5.47l5-1 1 5-5 1zm1 5.3l5-1 1 5-5 1zm1 5.3l5-1 1 5-5 1zm1 5.3l5-1 1 5-5 1zm1.05 5.3l5-1 1 5-5 1zm2 10.26l-1-5 5-1 1 5zm5.3-1l-1-5 5-1 1 5zm5.3-1l-1-5 5-1 1 5zm5.3-1l-1-5 5-1 1 5zm5.29-1l-1-5 5-1 1 5zm5.3-1.05l-1-5 5-1 1 5zm5.3-1l-1-5 5-1 1 5zm5.3-1.05l-1-5 5-1 1 5zm5.3-1l-1-5 5-1 1 5zm5.3-1l-1-5 5-1 1 5zm5.3-1l-1-5 4.83-1 1 5z"/><path class="cls-5" d="M21.3 75.19l-7.29-37-.34.06 7.29 37 .04.17.03.17 63.64-12.54-.07-.34-63.3 12.48z"/><path class="cls-5" d="M21.52 75.4a.37.37 0 01-.18 0 .35.35 0 01-.21-.44l2.36-6.89a.36.36 0 01.56-.14l2.44 2.28 2.8-9.42a.36.36 0 01.1-.15l4.72-4.48a.33.33 0 01.39 0l6.8 3.69L42.79 53a.32.32 0 01.21-.24.36.36 0 01.32 0l3 2.13 3-9.73a.34.34 0 01.25-.23.33.33 0 01.32.1l5.37 5.53 1.34-5.18a.31.31 0 01.08-.15L60 41.91a.34.34 0 01.28-.11l6.77.78 4.41-10.48a.34.34 0 01.45-.19.35.35 0 01.18.45l-4.55 10.72a.33.33 0 01-.35.2l-6.85-.78-3.09 3.19-1.47 5.68a.35.35 0 01-.58.15L49.81 46l-2.93 9.62a.37.37 0 01-.22.22.38.38 0 01-.31 0l-3-2.1-1.48 6.71a.31.31 0 01-.19.24.37.37 0 01-.31 0l-7-3.8-4.48 4.26L27 70.92a.38.38 0 01-.24.24.33.33 0 01-.32-.08L24 68.78l-2.2 6.4a.35.35 0 01-.28.22z"/><path class="cls-5" d="M73.42 33.58l-.5-4.06-3.26 2.46 3.76 1.6z"/><path class="cls-4" d="M78.66 51.74l9.28-1.68 4.44 23.74-10.59 5.43-3.56-9.51-4.72-5.17 5.83-9.45-.68-3.36z"/><path class="cls-4" d="M78.66 51.74l9.28-1.68 1.84 17.22a6.9 6.9 0 00-2.54-.11 32.26 32.26 0 00-5.1.39c-1.89.32-2.52.13-4.39.31l-3.37-3.39.43-8.58 5.38-1.64z"/><path class="cls-4" d="M87.94 50.06l-10.63-7.65-7.24-.52s-6 1.59-7.19 2.38c-.58.4-.94 2.12 1.34 2.7 1.4.36 4.35-1.07 4.35-1.07l3.9 1 4 3 2.64 4.26 7.54-1.89z"/><path class="cls-6" d="M76.29 73.05l18.13-5.18 5.17 15.8-17.5 8.97-5.8-19.59z"/><path class="cls-1" transform="rotate(-75.34 86.372 53.66)" d="M84.69 52.94h3.37v1.44h-3.37z"/><path class="cls-6" transform="rotate(-75.35 68.687 49.04)" d="M67 39.69h3.37v18.7H67z"/><path class="cls-6" transform="rotate(-75.35 68.687 49.04)" d="M67 39.69h3.37v18.7H67z"/><path class="cls-1" d="M68.68 46.82l-1.08 4.15-.2-.53.85-3.25.43-.37z"/><path class="cls-5" transform="rotate(-75.35 77.184 51.26)" d="M75.04 41.91h4.29V60.6h-4.29z"/><path class="cls-1" d="M59.22 48.3l-2.77-2.46 3.63-.79-.86 3.25zm23.23 6.95l-.34-.08L77.7 54h-.23a4.35 4.35 0 00-1-.13c-.78 0-1.63.62-1.24 1.15s1-.27 1.7 0l.49.13 4.41 1.15.92.24a.51.51 0 00.62-.36v-.09l1.31-5-1.07-.28z"/><path class="cls-4" d="M67 57.46S63.82 52 63.25 51c-1.23-2.15.39-3.57 2.14-2.78.83.37 4 4.74 4 4.74l4.07 3 2.6-.43 6.58 12.74-4.93.84z"/></g></g></g></svg>